<?xml version="1.0" encoding="utf-8"?>
<!-- Generator: Adobe Illustrator 24.0.2, SVG Export Plug-In . SVG Version: 6.00 Build 0)  -->
<svg version="1.1" id="Layer_1" xmlns="http://www.w3.org/2000/svg" xmlns:xlink="http://www.w3.org/1999/xlink" x="0px" y="0px"
	 viewBox="0 0 1366 768" style="enable-background:new 0 0 1366 768;" xml:space="preserve">
<style type="text/css">
	.st0{fill:#999999;}
	.st1{fill:#666666;}
	.st2{fill:none;stroke:#000000;stroke-width:9.9277;stroke-miterlimit:10;}
	.st3{fill:#D4EEF9;}
</style>
<polygon class="st0" points="732.86,442.42 874.66,442.42 857.5,314.74 742.01,366.05 "/>
<polygon class="st1" points="913.25,386.56 962.28,470.59 1321.28,626.08 709.28,492.51 817.2,374.03 856.65,314.96 "/>
<polygon class="st0" points="1366.28,589.55 1366.28,767.99 0.28,767.99 0.28,673.03 516.06,474.27 516.06,428.31 551.39,393.9 
	560.56,385.3 697.31,305.19 741.21,335.17 832.07,467.4 889.81,509.47 "/>
<path class="st2" d="M532.33,491.99"/>
<path class="st2" d="M446.45,336.14"/>
<polygon class="st3" points="697.64,305.19 559.6,465.94 505.58,485.6 -6.72,699.12 -6.72,611.47 363.28,479.99 497.14,398.54 "/>
</svg>
